<svg width="355" height="132" viewBox="0 0 355 132" fill="none" xmlns="http://www.w3.org/2000/svg">
<g clip-path="url(#clip0_6298_15485)">
<path d="M2.05044 128.873H0V114.188H5.30916C5.94992 114.188 6.55407 114.315 7.1216 114.55C7.68913 114.785 8.18343 115.128 8.60451 115.543C9.02558 115.959 9.35511 116.446 9.61142 117.006C9.84941 117.566 9.97757 118.162 9.97757 118.794C9.97757 119.427 9.84941 120.023 9.61142 120.583C9.37342 121.143 9.02558 121.63 8.60451 122.046C8.18343 122.461 7.68913 122.786 7.1216 123.039C6.55407 123.274 5.94992 123.4 5.30916 123.4H2.05044V128.855V128.873ZM5.30916 121.377C5.67531 121.377 6.00485 121.305 6.31607 121.179C6.6273 121.052 6.92022 120.853 7.15822 120.619C7.39621 120.384 7.57929 120.113 7.72575 119.806C7.8539 119.499 7.92713 119.156 7.92713 118.794C7.92713 118.433 7.8539 118.108 7.72575 117.783C7.5976 117.476 7.39621 117.187 7.15822 116.952C6.92022 116.717 6.64561 116.537 6.31607 116.392C6.00485 116.266 5.65701 116.193 5.30916 116.193H2.05044V121.359H5.30916V121.377Z" fill="white"></path>
<path d="M18.6547 114.188H20.6502L27.131 128.873H25.941C25.6115 128.873 25.3186 128.783 25.0623 128.62C24.806 128.458 24.6046 128.223 24.4764 127.934L23.4329 125.604H15.8536L14.8284 127.934C14.7003 128.223 14.5172 128.458 14.2426 128.62C13.9863 128.783 13.675 128.873 13.3638 128.873H12.1738L18.6547 114.188ZM19.4602 117.422L16.7507 123.563H22.5359L19.8263 117.422C19.7165 117.187 19.6433 116.898 19.625 116.555C19.625 116.717 19.5883 116.88 19.5517 117.024C19.5151 117.169 19.4785 117.295 19.4419 117.422H19.4602Z" fill="white"></path>
<path d="M32.495 121.515C32.495 122.274 32.6415 122.978 32.9344 123.647C33.2273 124.315 33.6118 124.893 34.1244 125.381C34.6187 125.868 35.2045 126.266 35.8819 126.555C36.5593 126.844 37.2733 126.988 38.0422 126.988C38.3351 126.988 38.6097 126.97 38.9026 126.916C39.1772 126.88 39.4519 126.808 39.7265 126.717L41.008 128.415C40.5503 128.614 40.0743 128.758 39.58 128.849C39.0857 128.939 38.5731 128.993 38.0605 128.993C37.017 128.993 36.0284 128.795 35.113 128.397C34.1976 128 33.3921 127.476 32.6964 126.79C32.0007 126.103 31.4698 125.309 31.067 124.405C30.6643 123.502 30.4629 122.527 30.4629 121.479C30.4629 120.793 30.5544 120.125 30.7375 119.492C30.9206 118.86 31.1769 118.264 31.5064 117.704C31.8359 117.144 32.2387 116.639 32.6964 116.187C33.1541 115.735 33.6667 115.338 34.2342 115.013C34.8018 114.688 35.4059 114.435 36.0467 114.254C36.6874 114.074 37.3648 113.983 38.0605 113.983C38.7562 113.983 39.4335 114.074 40.0743 114.254C40.7151 114.435 41.3192 114.688 41.8867 115.013C42.4543 115.338 42.9669 115.735 43.4246 116.187C43.8823 116.639 44.285 117.144 44.6146 117.704C44.9441 118.264 45.2004 118.86 45.3835 119.492C45.5665 120.125 45.6581 120.793 45.6581 121.479C45.6581 122.491 45.475 123.448 45.0906 124.333C44.7061 125.218 44.1935 125.995 43.5344 126.681L47.4888 131.955H46.0792C45.6764 131.955 45.3286 131.883 45.0173 131.721C44.7061 131.576 44.4498 131.341 44.2484 131.034L40.6968 126.302C41.1361 126.067 41.5206 125.778 41.8867 125.453C42.2346 125.11 42.5458 124.749 42.8021 124.333C43.0584 123.918 43.2598 123.466 43.388 122.997C43.5344 122.527 43.6076 122.021 43.6076 121.497C43.6076 120.739 43.4612 120.034 43.1683 119.366C42.8754 118.698 42.4909 118.12 41.9783 117.632C41.484 117.144 40.8981 116.747 40.2208 116.458C39.5434 116.169 38.8294 116.024 38.0605 116.024C37.2916 116.024 36.5776 116.169 35.9002 116.458C35.2228 116.747 34.637 117.144 34.1427 117.632C33.6484 118.12 33.2456 118.698 32.9527 119.366C32.6598 120.034 32.5133 120.739 32.5133 121.497L32.495 121.515Z" fill="white"></path>
<path d="M53.5316 123.138C53.5316 123.662 53.6415 124.168 53.8429 124.637C54.0442 125.107 54.3189 125.522 54.685 125.866C55.0328 126.227 55.4539 126.498 55.9299 126.696C56.4059 126.895 56.9185 127.004 57.4494 127.004C57.9803 127.004 58.493 126.895 58.9689 126.696C59.4449 126.498 59.866 126.227 60.2139 125.866C60.5617 125.522 60.8546 125.107 61.056 124.637C61.2574 124.168 61.3672 123.662 61.3672 123.138V114.197H63.4177V123.138C63.4177 123.68 63.3444 124.204 63.198 124.71C63.0515 125.215 62.8501 125.685 62.5938 126.118C62.3375 126.552 62.0263 126.949 61.6601 127.311C61.294 127.672 60.8912 127.979 60.4519 128.232C60.0125 128.485 59.5365 128.683 59.0239 128.828C58.5113 128.972 57.9803 129.045 57.4311 129.045C56.8819 129.045 56.351 128.972 55.8567 128.828C55.3441 128.683 54.8681 128.485 54.4287 128.232C53.9893 127.979 53.5866 127.672 53.2204 127.311C52.8543 126.949 52.543 126.552 52.2867 126.118C52.0304 125.685 51.829 125.215 51.6826 124.71C51.5361 124.204 51.4629 123.68 51.4629 123.138V114.197H53.5133V123.138H53.5316Z" fill="white"></path>
<path d="M79.2345 128.873H70.0625V114.188H79.2345V116.211H72.1129V120.438H77.8798V122.461H72.1129V126.832H79.2345V128.855V128.873Z" fill="white"></path>
<path d="M83.9404 116.211V114.188H95.2178V116.211H90.6044V128.873H88.5539V116.211H83.9404Z" fill="white"></path>
<path d="M109.808 128.873H100.636V114.188H109.808V116.211H102.686V120.438H108.453V122.461H102.686V126.832H109.808V128.855V128.873Z" fill="white"></path>
<path d="M118.248 128.873H116.197V114.188H121.525C122.129 114.188 122.696 114.297 123.227 114.532C123.758 114.766 124.216 115.055 124.6 115.453C124.985 115.832 125.296 116.302 125.534 116.808C125.772 117.331 125.882 117.891 125.882 118.487C125.882 118.957 125.809 119.427 125.662 119.86C125.516 120.294 125.296 120.691 125.04 121.052C124.765 121.413 124.454 121.72 124.088 121.973C123.722 122.244 123.319 122.443 122.879 122.569L127.603 128.873H126.193C125.79 128.873 125.443 128.801 125.131 128.638C124.82 128.476 124.564 128.259 124.362 127.952L120.481 122.768H118.266V128.873H118.248ZM118.248 116.23V120.745H121.525C121.836 120.745 122.147 120.691 122.422 120.565C122.696 120.456 122.934 120.294 123.154 120.077C123.355 119.878 123.52 119.625 123.648 119.354C123.777 119.083 123.831 118.794 123.831 118.469C123.831 118.144 123.777 117.855 123.648 117.584C123.52 117.313 123.355 117.078 123.154 116.862C122.953 116.663 122.696 116.5 122.422 116.374C122.147 116.248 121.854 116.193 121.525 116.193H118.248V116.23Z" fill="white"></path>
<path d="M135.128 128.868H133.077V114.184H135.128V128.868ZM135.164 112.594C134.945 112.901 134.542 113.046 133.974 113.046H133.205C133.974 111.8 134.395 111.131 134.469 111.059C134.688 110.752 135.091 110.607 135.658 110.607H136.848L135.164 112.594Z" fill="white"></path>
<path d="M146.698 114.188H148.693L155.174 128.873H153.984C153.654 128.873 153.362 128.783 153.105 128.62C152.849 128.458 152.648 128.223 152.519 127.934L151.476 125.604H143.897L142.871 127.934C142.743 128.223 142.56 128.458 142.286 128.62C142.029 128.783 141.718 128.873 141.407 128.873H140.217L146.698 114.188ZM147.503 117.422L144.794 123.563H150.579L147.869 117.422C147.759 117.187 147.686 116.898 147.668 116.555C147.668 116.717 147.631 116.88 147.595 117.024C147.558 117.169 147.521 117.295 147.485 117.422H147.503Z" fill="white"></path>
<path d="M205.099 128.864H203.048V117.178C203.048 117.178 203.048 117.25 203.012 117.322C203.012 117.394 202.975 117.467 202.975 117.575C202.975 117.665 202.938 117.756 202.92 117.846C202.902 117.936 202.865 118.008 202.847 118.081L198.087 128.882H196.091L191.331 118.099C191.331 118.099 191.276 117.99 191.258 117.918C191.24 117.846 191.222 117.774 191.203 117.683C191.203 117.611 191.167 117.539 191.167 117.467C191.167 117.394 191.167 117.358 191.167 117.322V128.882H189.116V114.197H190.819C191.148 114.197 191.441 114.288 191.698 114.45C191.954 114.631 192.155 114.848 192.283 115.137L196.915 125.631C196.97 125.775 197.007 125.902 197.043 126.064C197.08 126.227 197.098 126.371 197.098 126.534C197.117 126.191 197.19 125.884 197.3 125.631L201.931 115.137C202.06 114.848 202.261 114.613 202.536 114.45C202.81 114.288 203.103 114.197 203.414 114.197H205.154V128.882L205.099 128.864Z" fill="white"></path>
<path d="M221.191 128.873H212.019V114.188H221.191V116.211H214.069V120.438H219.836V122.461H214.069V126.832H221.191V128.855V128.873Z" fill="white"></path>
<path d="M239.938 128.864H238.272L229.795 117.394C229.795 117.394 229.685 117.232 229.649 117.141C229.612 117.051 229.576 116.961 229.557 116.852C229.521 116.744 229.502 116.636 229.484 116.527V128.846H227.434V114.161H228.898C229.228 114.161 229.521 114.215 229.777 114.306C230.033 114.396 230.216 114.54 230.363 114.739L237.558 124.547C237.741 124.818 237.851 125.143 237.905 125.559V114.161H239.956V128.846L239.938 128.864Z" fill="white"></path>
<path d="M252.295 116.691C252.02 116.493 251.746 116.348 251.471 116.222C251.196 116.113 250.94 116.059 250.702 116.059C250.372 116.059 250.08 116.095 249.787 116.186C249.494 116.276 249.256 116.402 249.036 116.547C248.816 116.709 248.652 116.89 248.523 117.107C248.395 117.323 248.34 117.558 248.34 117.811C248.34 118.1 248.395 118.353 248.487 118.552C248.578 118.75 248.743 118.949 248.963 119.094C249.183 119.256 249.457 119.401 249.805 119.545C250.153 119.69 250.556 119.834 251.05 120.015C251.288 120.105 251.544 120.195 251.782 120.286C252.02 120.376 252.276 120.466 252.496 120.557C252.734 120.647 252.954 120.755 253.192 120.882C253.43 120.99 253.631 121.135 253.851 121.297C254.894 122.092 255.407 123.14 255.407 124.476C255.407 125.145 255.261 125.759 254.986 126.319C254.711 126.879 254.345 127.348 253.869 127.745C253.393 128.143 252.862 128.45 252.24 128.685C251.617 128.901 250.977 129.01 250.318 129.01C248.981 129.01 247.864 128.612 246.967 127.836C246.784 127.673 246.619 127.511 246.491 127.366C246.363 127.222 246.235 127.059 246.125 126.897C246.034 126.752 245.942 126.608 245.869 126.481C245.796 126.355 245.741 126.264 245.704 126.174L246.198 125.921C246.455 125.759 246.729 125.686 247.022 125.686C247.48 125.686 247.846 125.849 248.157 126.174L248.322 126.301C248.578 126.517 248.871 126.68 249.201 126.806C249.53 126.933 249.896 126.987 250.299 126.987C250.629 126.987 250.995 126.933 251.343 126.824C251.709 126.716 252.02 126.553 252.313 126.355C252.606 126.138 252.844 125.885 253.045 125.578C253.228 125.271 253.338 124.91 253.338 124.494C253.338 124.079 253.247 123.772 253.064 123.519C252.881 123.266 252.643 123.031 252.368 122.851C252.075 122.67 251.764 122.507 251.398 122.381C251.05 122.255 250.684 122.11 250.354 121.984C249.842 121.785 249.347 121.586 248.853 121.369C248.359 121.153 247.938 120.9 247.553 120.593C247.169 120.286 246.857 119.924 246.638 119.473C246.4 119.039 246.29 118.479 246.29 117.829C246.29 117.233 246.418 116.691 246.674 116.222C246.931 115.752 247.26 115.355 247.681 115.03C248.102 114.704 248.56 114.452 249.109 114.289C249.64 114.126 250.189 114.036 250.739 114.036C251.141 114.036 251.544 114.108 251.947 114.235C252.35 114.379 252.716 114.542 253.082 114.759C253.43 114.975 253.759 115.21 254.034 115.463C254.309 115.716 254.547 115.951 254.73 116.186L254.199 116.583C253.906 116.836 253.576 116.944 253.192 116.944C252.862 116.944 252.569 116.872 252.313 116.709L252.295 116.691Z" fill="white"></path>
<path d="M265.495 114.188H267.49L273.971 128.873H272.781C272.451 128.873 272.158 128.783 271.902 128.62C271.646 128.458 271.444 128.223 271.316 127.934L270.273 125.604H262.693L261.668 127.934C261.54 128.223 261.357 128.458 261.082 128.62C260.826 128.783 260.515 128.873 260.204 128.873H259.014L265.495 114.188ZM266.3 117.422L263.591 123.563H269.376L266.666 117.422C266.556 117.187 266.483 116.898 266.465 116.555C266.465 116.717 266.428 116.88 266.392 117.024C266.355 117.169 266.318 117.295 266.282 117.422H266.3Z" fill="white"></path>
<path d="M281.605 114.188H283.655V126.724C283.655 127.374 283.527 127.988 283.289 128.566C283.033 129.144 282.703 129.632 282.264 130.065C281.825 130.481 281.33 130.824 280.744 131.077C280.159 131.33 279.554 131.438 278.895 131.438C278.236 131.438 277.632 131.33 277.065 131.077C276.497 130.842 276.003 130.517 275.563 130.101L276.149 129.523C276.461 129.216 276.845 129.054 277.284 129.054C277.431 129.054 277.559 129.09 277.687 129.126C277.815 129.162 277.943 129.198 278.072 129.253C278.2 129.289 278.328 129.325 278.474 129.361C278.603 129.397 278.749 129.415 278.914 129.415C279.28 129.415 279.646 129.343 279.957 129.198C280.287 129.054 280.58 128.873 280.818 128.62C281.074 128.386 281.257 128.097 281.404 127.771C281.55 127.446 281.623 127.103 281.623 126.724V114.188H281.605Z" fill="white"></path>
<path d="M299.821 128.873H290.649V114.188H299.821V116.211H292.7V120.438H298.467V122.461H292.7V126.832H299.821V128.855V128.873Z" fill="white"></path>
<path d="M308.279 128.873H306.229V114.188H311.556C312.16 114.188 312.728 114.297 313.259 114.532C313.789 114.766 314.247 115.055 314.632 115.453C315.016 115.832 315.327 116.302 315.565 116.808C315.803 117.331 315.913 117.891 315.913 118.487C315.913 118.957 315.84 119.427 315.693 119.86C315.547 120.294 315.327 120.691 315.071 121.052C314.796 121.413 314.485 121.72 314.119 121.973C313.753 122.244 313.35 122.443 312.911 122.569L317.634 128.873H316.224C315.822 128.873 315.474 128.801 315.163 128.638C314.851 128.476 314.595 128.259 314.394 127.952L310.512 122.768H308.297V128.873H308.279ZM308.279 116.23V120.745H311.556C311.867 120.745 312.178 120.691 312.453 120.565C312.728 120.456 312.966 120.294 313.185 120.077C313.387 119.878 313.551 119.625 313.68 119.354C313.808 119.083 313.863 118.794 313.863 118.469C313.863 118.144 313.808 117.855 313.68 117.584C313.551 117.313 313.387 117.078 313.185 116.862C312.984 116.663 312.728 116.5 312.453 116.374C312.178 116.248 311.885 116.193 311.556 116.193H308.279V116.23Z" fill="white"></path>
<path d="M325.159 128.868H323.108V114.184H325.159V128.868ZM325.195 112.594C324.976 112.901 324.573 113.046 324.005 113.046H323.237C324.005 111.8 324.427 111.131 324.5 111.059C324.719 110.752 325.122 110.607 325.69 110.607H326.88L325.195 112.594Z" fill="white"></path>
<path d="M336.71 114.188H338.706L345.187 128.873H343.997C343.667 128.873 343.374 128.783 343.118 128.62C342.862 128.458 342.66 128.223 342.532 127.934L341.489 125.604H333.909L332.884 127.934C332.756 128.223 332.573 128.458 332.298 128.62C332.042 128.783 331.731 128.873 331.419 128.873H330.229L336.71 114.188ZM337.516 117.422L334.806 123.563H340.591L337.882 117.422C337.772 117.187 337.699 116.898 337.681 116.555C337.681 116.717 337.644 116.88 337.607 117.024C337.571 117.169 337.534 117.295 337.498 117.422H337.516Z" fill="white"></path>
<path d="M75.6096 11.3251C72.0762 7.78489 67.9387 5.02135 63.1605 3.01642C58.3823 1.01149 53.2745 0 47.8738 0H3.5331C2.56281 0 1.73897 0.343186 1.07991 1.01149C0.384222 1.6798 0.0546875 2.49261 0.0546875 3.43186V101.438C0.0546875 102.396 0.384222 103.209 1.0616 103.877C1.73897 104.545 2.5445 104.888 3.5148 104.888H25.2824C26.2344 104.888 27.0582 104.563 27.7356 103.877C28.4129 103.209 28.7425 102.396 28.7425 101.438V80.0887C28.7425 79.1314 29.0903 78.3186 29.7677 77.6503C30.4451 76.9819 31.2689 76.6388 32.2392 76.6388H44.8713C51.938 76.6388 58.1076 75.6634 63.3985 73.6946C68.671 71.7438 73.0831 69.0526 76.6165 65.6749C80.1498 62.2792 82.7861 58.2693 84.5253 53.6453C86.2645 49.0214 87.1433 44.0181 87.1433 38.6716C87.1433 33.3251 86.0998 28.3038 84.031 23.6256C81.944 18.9475 79.1429 14.8292 75.6279 11.3071L75.6096 11.3251ZM55.8924 46.5287C54.1898 48.8588 51.4986 50.0148 47.8005 50.0148H32.2209C31.2506 50.0148 30.4268 49.6897 29.7494 49.0213C29.072 48.353 28.7242 47.5402 28.7242 46.601V29.803C28.7242 28.8457 29.072 28.0509 29.7494 27.3826C30.4268 26.7143 31.2506 26.3892 32.2209 26.3892H45.9149C47.947 26.3892 49.7594 26.7504 51.2973 27.4548C52.8534 28.1593 54.1532 29.0985 55.2334 30.2365C56.2952 31.3744 57.1007 32.6749 57.6316 34.156C58.1626 35.6371 58.4372 37.1182 58.4372 38.6355C58.4372 41.5796 57.5767 44.2168 55.8924 46.5468V46.5287Z" fill="white"></path>
<path d="M210.316 0.143062H190.123C189.153 0.143062 188.146 0.432061 187.102 1.01006C186.04 1.58805 185.217 2.25636 184.649 3.01498L156.767 43.4206C156.273 44.1792 155.65 44.5766 154.881 44.5766C154.112 44.5766 153.417 44.1973 152.849 43.4206L124.948 3.01498C124.472 2.25636 123.704 1.58805 122.642 1.01006C121.58 0.432061 120.573 0.143062 119.621 0.143062H99.4279C98.4759 0.143062 97.6521 0.486248 96.9747 1.15456C96.2973 1.82287 95.9678 2.63567 95.9678 3.59298V101.455C95.9678 102.412 96.2973 103.225 96.9747 103.893C97.6521 104.562 98.4576 104.905 99.4279 104.905H121.195C122.166 104.905 122.971 104.58 123.649 103.893C124.326 103.225 124.656 102.412 124.656 101.455V55.3237C124.656 54.3664 125.095 53.8426 125.955 53.7523C126.834 53.6619 127.512 53.9871 127.988 54.7638L152.391 93.5979C152.977 94.3565 153.801 94.7358 154.863 94.7358C155.925 94.7358 156.694 94.3565 157.188 93.5979L181.592 54.7638C182.178 54.0051 182.892 53.6619 183.77 53.7523C184.649 53.8426 185.088 54.3664 185.088 55.3237V101.455C185.088 102.412 185.418 103.225 186.095 103.893C186.773 104.562 187.578 104.905 188.549 104.905H210.316C211.268 104.905 212.092 104.58 212.769 103.893C213.447 103.225 213.776 102.412 213.776 101.455V3.57492C213.776 2.61761 213.447 1.8048 212.769 1.13649C212.092 0.468186 211.286 0.125 210.316 0.125V0.143062Z" fill="white"></path>
<path d="M314.339 3.0145L286.457 43.4201C285.981 44.1787 285.34 44.5761 284.571 44.5761C283.802 44.5761 283.125 44.1968 282.539 43.4201L254.657 3.0145C254.181 2.25588 253.412 1.58757 252.35 1.00957C251.288 0.431577 250.281 0.142578 249.329 0.142578H229.136C228.166 0.142578 227.36 0.485764 226.683 1.15407C226.005 1.82238 225.676 2.63519 225.676 3.5925V101.455C225.676 102.412 226.005 103.225 226.683 103.893C227.36 104.561 228.166 104.904 229.136 104.904H250.903C251.874 104.904 252.679 104.579 253.357 103.893C254.034 103.225 254.364 102.412 254.364 101.455V55.3232C254.364 54.3659 254.803 53.8421 255.663 53.7518C256.542 53.6615 257.22 53.9866 257.696 54.7633L282.099 93.5974C282.685 94.356 283.509 94.7354 284.571 94.7354C285.633 94.7354 286.402 94.356 286.896 93.5974L311.3 54.7633C311.886 54.0046 312.6 53.6615 313.478 53.7518C314.357 53.8421 314.778 54.3659 314.778 55.3232V101.455C314.778 102.412 315.108 103.225 315.785 103.893C316.463 104.561 317.268 104.904 318.238 104.904H340.006C340.958 104.904 341.782 104.579 342.459 103.893C343.136 103.225 343.466 102.412 343.466 101.455V25.3216L315.62 1.76819C315.126 2.1475 314.668 2.56294 314.339 2.99644V3.0145Z" fill="white"></path>
<path d="M348.646 120.793V116.188H350.624C351.118 116.188 351.484 116.224 351.704 116.314C351.924 116.404 352.107 116.549 352.253 116.747C352.381 116.964 352.454 117.199 352.454 117.47C352.454 117.813 352.345 118.102 352.143 118.319C351.942 118.536 351.631 118.68 351.228 118.752C351.429 118.861 351.594 119.005 351.74 119.132C351.869 119.276 352.052 119.529 352.271 119.872L352.839 120.775H351.722L351.045 119.764C350.807 119.403 350.642 119.186 350.55 119.077C350.459 118.987 350.367 118.915 350.276 118.879C350.184 118.843 350.02 118.825 349.8 118.825H349.617V120.757H348.683L348.646 120.793ZM349.58 118.138H350.276C350.734 118.138 351.008 118.12 351.118 118.084C351.228 118.048 351.319 117.976 351.374 117.885C351.429 117.795 351.466 117.687 351.466 117.542C351.466 117.38 351.429 117.253 351.338 117.163C351.246 117.073 351.136 117 350.99 116.982C350.917 116.982 350.679 116.982 350.294 116.982H349.562V118.156L349.58 118.138Z" fill="white"></path>
<path d="M350.496 122.94C348.025 122.94 346.011 120.954 346.011 118.497C346.011 116.041 348.025 114.054 350.496 114.054C352.968 114.054 354.981 116.041 354.981 118.497C354.981 120.954 352.968 122.94 350.496 122.94ZM350.496 114.596C348.317 114.596 346.542 116.348 346.542 118.497C346.542 120.646 348.317 122.399 350.496 122.399C352.675 122.399 354.45 120.646 354.45 118.497C354.45 116.348 352.675 114.596 350.496 114.596Z" fill="white"></path>
<path d="M169.985 122.752H166.598V119.537H169.985V116.231H173.609V119.537H176.978V122.752H173.609V126.094H169.985V122.752Z" fill="#3DAE2B"></path>
<path d="M319.594 0.0712891L343.467 20.4096V0.0712891H319.594Z" fill="#3DAE2B"></path>
</g>
<defs>
<clipPath id="clip0_6298_15485">
<rect width="355" height="132" fill="white"></rect>
</clipPath>
</defs>
</svg>
